<svg id="Layer_1" data-name="Layer 1" xmlns="http://www.w3.org/2000/svg" viewBox="0 0 3702.24 3702.24"><defs><style>.cls-1{fill:#fff;}</style></defs><title>Logo Saraya (White)</title><path class="cls-1" d="M1261.61,158.16a1577.08,1577.08,0,0,0-121,224c-24.58,55.89-43.87,112.72-53.66,173-9.61,59.18-38.77,113.1-79.69,156.5-23.85,25.29-51.56,48-81.93,65C908.18,786.33,890.43,795,873,804.05L756.34,864.79c-15,7.81-31,14.5-43.53,26.13C702,901,693.41,914,691.56,929c-2.94,23.59,11.09,45.23,26.59,61.63,26.64,28.21,62.55,45.36,85.9,77.06,14,19,22.79,42,19.26,65.76-2.62,17.73-13.33,43.78-31,51.86-15.61,7.15-30.86,15.7-44.5,26.15s-31,26.43-28,45.46c1.87,11.62,10.89,19.39,19.57,26.33,11.72,9.37,23.67,18.8,34,29.72,3.24,3.42,6.87,7.1,8.16,11.74.2.73-.69,1.35-.64,1.74,0,.13-.63.24-.63.3,0,3.57,76.18.17,52.85-.1-16.42-.18-33-.67-49.4,0-3.17.14-3.35.1-5.68.91-5,1.71-9.89,5.18-14.33,7.92-16.2,10-32.08,22.78-41.56,39.58-12.06,21.38-8,44.54,6.39,63.74,17.56,23.5,45.94,43.85,47.15,76a38.37,38.37,0,0,1-16.45,33c-4.52,3.16-5.69,5.41-8.38,10.62-15.82,30.63-26.85,65-28.6,99.5-2.66,52.51,21.42,98.18,66.51,125.54,60.81,36.9,137.24,51.23,207.16,57.29a1165.77,1165.77,0,0,0,188.44.71c8.68-.66,17.39-1.38,26-2.56l-58.84.08c52.76,1.61,108.89,16.47,158.7,35,109.22,40.59,203.78,114.65,262.68,216,46.71,80.33,69.19,172,76.26,264.13.15,2,59.84-1.07,59.92,0-11.45-148.93-66.63-293.91-183.63-391.31-72.9-60.68-163-99.43-256-116.51-19.43-3.57-39.17-6.46-58.93-7.35-23.61-1.07-47.42-1.11-70.94,1.27-11.57,1.16-23.18,2-34.81,2.52-7.9.38-15.81.53-23.72.77,48.38-1.45,18,0,.87-.89-49.81-2.55-99.66-9.77-147.58-23.79-44.26-13-93.13-30.63-123.46-67.24-40.65-49.06-32.64-117.07-9.82-172.14,3.67-8.87,7.8-22.89,15-29.61,4.87-4.56,10.09-7.22,13.88-13.2,6.26-9.89,6.87-21.73,3.93-32.86-6.21-23.45-24.14-40.38-39.68-57.88-12-13.55-21.36-30.66-19.31-49.31,3-27.42,27.3-47.89,49.37-61.37a140.42,140.42,0,0,1,15.31-8.3l-55.83.16c17.24.23,34.57.5,51.8,0,.24,0,4.48.44,5.29-.54,2.44-2.93-2.8-8.16-4.5-10.16-11.89-14-27.37-24.74-41.35-36.47-9.68-8.12-17.54-18.94-15.12-32.2,4.44-24.26,32.85-41.13,52.45-52.16,9.31-5.24,20.86-8.27,28.21-16.2,12.28-13.23,20.94-30.36,23-48.37,4-35.56-18.56-66.72-43.71-89.32-30.53-27.44-75.67-48.89-86.91-92.07-5.57-21.39,2.68-41.87,18.06-56.9A86.31,86.31,0,0,1,790.93,878c16.92-9,34-17.72,51.05-26.58l133.59-69.57c26.66-13.87,51.11-31.67,73.22-52,25.07-23.06,47-49.63,64-79.21a286.22,286.22,0,0,0,23.84-53.4c6.54-20,9.51-40.3,13.14-60.91,13.76-78.1,47.86-152.82,83.43-223.11,25.55-50.47,53.42-99.9,83.64-147.72,1.55-2.45,3.1-4.9,4.67-7.32-.14.22-9.94-.23-8.77-.21-7.06-.08-14.12-.09-21.18-.09s-14.12,0-21.19.09c-1.24,0-8.23-.62-8.77.21Z"/><path class="cls-1" d="M2914.74,3224.89c-20.61-2-41.17-4.79-61.69-7.61q-80.45-11-160.25-26.32-112.14-21.3-222.6-50.55c-83.26-22.25-165.61-48.25-245.89-79.64-80.52-31.49-159.31-68.38-232.78-114.12-67.65-42.12-131.55-92.18-182.49-153.85-47.43-57.43-82.17-125.11-95-198.83-14.66-84-.29-169.94,29.62-249.06,42.6-112.71,113.76-213.41,191.44-304.54,52.67-61.79,109.59-119.9,168.8-175.44,68.81-64.55,142.07-123.6,213.44-185.2,114.52-98.85,223.9-206.44,312.48-329.57,61.27-85.17,113.69-179.82,137.43-282.78,18.05-78.27,17.48-160.11-6.53-237.05-23-73.59-65.6-139.42-117.56-195.85-57.13-62-125.08-113.53-196.52-158-77.33-48.09-159.46-88.24-243.41-123.35-84.34-35.29-170.78-65.47-258.23-92.06-79.54-24.19-160-45.37-241-64.07q-95.34-22-191.68-39.38c-36.66-6.59-73.42-12.73-110.31-18-4.87-.69-9.74-1.38-14.62-2-3.38-.43-12.41,3-14.63,3.55-11.73,3-23.43,6.11-35.12,9.25s-23.39,6.29-35.05,9.55c-3.68,1-10.87,4.7-14.44,4.24,19.78,2.53,39.49,5.63,59.17,8.79q78.38,12.57,156.14,28.57,111.71,22.78,222,51.91c85.62,22.7,170.48,48.43,253.93,78.15,86.84,30.93,172.3,66.15,254.55,107.86,78.5,39.79,154.5,85.57,223.13,140.86,62.07,50,118.62,108.42,159.62,177.16,39.22,65.74,62.26,140.09,64.06,216.78,2.13,90.43-24.12,179.06-63.57,259.7-55.68,113.83-136.36,214.49-223.28,305.91-122.87,129.24-266,235.25-395.41,357.38-106.3,100.32-207.39,209.68-284.27,334.61-51.45,83.59-92.86,176.62-103,275.14-7.87,76.48,5.27,153.49,39.58,222.39,34.1,68.5,86.27,126.45,145,174.88,64.72,53.41,137.75,96.26,213.18,132.62,78.81,38,160.89,69,244.21,95.61,78.3,25,157.86,45.93,238.06,63.84q96.78,21.6,194.74,37.32c38,6.1,76,11.61,114.24,16.05,5.1.59,10.21,1.18,15.32,1.69,3.57.36,12.12-2.9,14.63-3.54q17.6-4.52,35.12-9.26c11.69-3.13,23.39-6.28,35.05-9.54,3.79-1.06,10.71-4.62,14.44-4.25Z"/><path class="cls-1" d="M2711.71,112.29c-31,7.18-61.74,15.57-92.47,23.81-58,15.56-115.7,32-172.89,50.2q-98.17,31.33-194.26,68.85c-76.58,30-152,63-225.56,99.81-78.37,39.21-154.72,82.72-227.13,132.13-71.39,48.7-139.21,103.26-199,165.8-56.72,59.33-106.28,126.25-141.15,200.8-34.7,74.2-53.62,155.13-53.59,237.14,0,95.07,24.84,188.48,63.64,274.82,51.87,115.39,127.29,219.24,210.6,313.83,53.26,60.47,110.33,117.52,169.69,172,68.35,62.7,140.1,121.46,207.25,185.51,109.05,104,211.85,217.09,292.82,344.68,57.15,90.06,103.9,188.94,123.43,294.41,15.14,81.78,12.43,166.32-11.67,246.13-22.64,75-62.95,143.4-113,203.25-52.14,62.26-114.38,115.58-180.72,162.13-67.68,47.48-140,88.18-214.43,124.06-69.67,33.6-141.35,63-214.16,89.05q-47.94,17.16-96.54,32.35-21.69,6.8-43.51,13.22l-7.36,2.15-10,2.88-4.55,1.29c-6.45,1.84,4.93-1.37.32-.09l-4.41,1.23c-6.81,2,3.72-1,2.61-.71l-4.26,1.17c-7.85,2.14,10.26-2.79,4.48-1.23-7.21,2,5.17-1.39,6.52-1.75-7.94,2.13,7.9-2.1,6-1.59-11.11,2.95,8.94-2.34,1-.27-6.64,1.73,9.69-2.49-.18,0l-3.62.93c-5.82,1.51,6-1.5,1.78-.45l-7.39,1.85-7.06,1.75-4.93,1.21-4.54,1.09-6,1.42q-5.42,1.28-10.84,2.52-8.52,2-17,3.81c-4.58,1-9.17,2-13.77,2.9-27.51,5.42-65.37,19.3-87,23.56,19.79-3.9,39.43-8.63,59-13.4q105.9-25.77,210.49-57,98.16-29.43,193.83-66.52c74.39-29,147.41-61.68,217.83-99.33,72.94-39,143.34-83.33,207.8-135.27,62.22-50.13,119.23-107.71,163.81-174.26,43.61-65.1,74.27-138.62,85.86-216.31,13.11-87.84,1.47-177.39-26.06-261.41-36.94-112.78-100.13-215.77-171.93-309.55-102.31-133.65-224.27-251.42-351.78-360.77-120.17-103.06-234.55-214.69-329.73-341.63-68.6-91.49-127.9-192.08-162.22-301.69-26.57-84.85-36.92-174.77-24.41-263.08,11.32-79.93,41-156.17,83.09-224.82,43.69-71.23,99.9-134.19,161.8-190.06,64.88-58.56,136.28-109.68,210.64-155.46,73.93-45.5,151-85.79,229.8-122.2,71.76-33.15,145-63.08,219.23-90.27q88.5-32.43,178.82-59.57c14.45-4.35,17.42-5.22,31.52-9.27l7.91-2.25c7.93-2.27-5.14,1.42,1.71-.49q3.62-1,7.23-2c5-1.4-9.72,2.68-4.83,1.33l3.65-1c8.19-2.22-12.2,3.31-3.29.9,6.88-1.87-14.78,4-5,1.34-1.89.5-14.76,3.92-5.44,1.45,1.13-.3-13.34,3.51-4.72,1.25l-3.57.93q2.22-.59,4.44-1.14c2.92-.74-8.81,2.2-2.44.62l3.6-.9,5.79-1.43c4.72-1.18-5,1.18,0,0l3.45-.82c27.36-6.34,65.46-18.58,87-23.57Z"/><path class="cls-1" d="M1083.59,649.34l-.93-.07-.69-.08-1.33-.16-2.5-.35c-1.61-.26-3.22-.51-4.77-.81s-3.12-.59-4.65-.92-3.07-.66-4.58-1c-6.08-1.42-12-3.08-17.86-5a226.42,226.42,0,0,1-33.88-14.07,201,201,0,0,1-30.79-19.54,187.73,187.73,0,0,1-26.38-24.77l-2.91-3.42c-1-1.16-2-2.24-2.85-3.47l-5.37-7.17-.67-.89-.61-.93-1.23-1.87-2.43-3.74c-.8-1.25-1.65-2.46-2.39-3.74l-2.18-3.87-2.17-3.86-1.07-1.92c-.35-.65-.65-1.33-1-2l-3.79-7.94c-.67-1.3-1.17-2.68-1.72-4l-1.62-4.07c-1.07-2.71-2.2-5.38-3-8.17a234.6,234.6,0,0,1-11.72-67.28c4.35,22.14,11.49,43.57,21.74,62.95,1.18,2.47,2.65,4.79,4,7.14l2.1,3.5c.7,1.16,1.36,2.35,2.17,3.44l4.63,6.68c.39.55.76,1.11,1.17,1.65l1.26,1.58,2.52,3.15,2.51,3.15c.85,1,1.8,2,2.68,3l2.7,3,1.35,1.47.67.74.72.69,5.74,5.53c.92.94,2,1.74,3,2.61l3,2.56a165.78,165.78,0,0,0,54.69,29.75,189.91,189.91,0,0,0,30.11,7.09c5.07.79,10.17,1.35,15.2,1.68,1.26.1,2.52.17,3.76.21s2.5.11,3.72.12,2.43,0,3.62,0l1.71-.05c.3,0,.52,0,.77,0l.37,0c.11,0,.08,0,.13,0Z"/><path class="cls-1" d="M1082.39,645.66l-1-.29-.68-.23-1.31-.45c-.8-.31-1.66-.6-2.42-.92-1.57-.61-3.11-1.23-4.6-1.88-3-1.29-5.92-2.64-8.77-4.07-5.7-2.86-11.24-5.88-16.56-9.24A197.6,197.6,0,0,1,1017.26,606a187,187,0,0,1-24.73-27.7l-2.66-3.79c-.87-1.27-1.8-2.49-2.58-3.82l-4.83-7.84-4.33-8.09c-.75-1.33-1.35-2.74-2-4.12l-1.89-4.15c-.61-1.39-1.32-2.73-1.83-4.16L970.78,538c-1.07-2.83-2.22-5.61-3-8.52s-1.8-5.74-2.64-8.61L963,512.2c-.77-2.88-1.17-5.84-1.69-8.76l-.74-4.37-.37-2.19-.23-2.2-.91-8.78-.22-2.19-.1-2.2-.17-4.39a263.11,263.11,0,0,1,6.78-68.64c-1.45,22.75-.37,45.56,4.06,67.35a170.94,170.94,0,0,0,24,60.3l2.22,3.32c.74,1.1,1.44,2.22,2.28,3.26l4.81,6.3,5.17,6c.82,1,1.79,1.92,2.69,2.87l2.74,2.81a156.57,156.57,0,0,0,24.21,19.63,161.86,161.86,0,0,0,27.26,14.47c4.71,2,9.53,3.69,14.32,5.19,2.4.75,4.81,1.42,7.17,2,1.19.3,2.35.56,3.49.8.58.14,1.1.21,1.65.32l.74.13.35,0c.12,0,0,0,.09,0Z"/></svg>